<svg width="32" height="32" viewBox="0 0 32 32" fill="none" xmlns="http://www.w3.org/2000/svg">
<g clip-path="url(#clip0_408_10691)">
<path fill-rule="evenodd" clip-rule="evenodd" d="M16 32C24.8366 32 32 24.8366 32 16C32 7.16344 24.8366 0 16 0C7.16344 0 0 7.16344 0 16C0 24.8366 7.16344 32 16 32Z" fill="#C5C8D7"/>
<path d="M11 9.75C10.337 9.75 9.70107 10.0134 9.23223 10.4822C8.76339 10.9511 8.5 11.587 8.5 12.25V12.5013L16 16.54L23.5 12.5025V12.25C23.5 11.587 23.2366 10.9511 22.7678 10.4822C22.2989 10.0134 21.663 9.75 21 9.75H11ZM23.5 13.9212L16.2963 17.8C16.2052 17.849 16.1034 17.8747 16 17.8747C15.8966 17.8747 15.7948 17.849 15.7038 17.8L8.5 13.9212V19.75C8.5 20.413 8.76339 21.0489 9.23223 21.5178C9.70107 21.9866 10.337 22.25 11 22.25H21C21.663 22.25 22.2989 21.9866 22.7678 21.5178C23.2366 21.0489 23.5 20.413 23.5 19.75V13.9212Z" fill="white"/>
</g>
<defs>
<clipPath id="clip0_408_10691">
<rect width="32" height="32" fill="white"/>
</clipPath>
</defs>
</svg>
