<svg width="140" height="18" viewBox="0 0 140 18" fill="none" xmlns="http://www.w3.org/2000/svg">
<path fill-rule="evenodd" clip-rule="evenodd" d="M14.928 14.4465V12.2865H12.9361V0.0464518H10.1942V12.2865H3.67928C3.46836 12.2865 3.04653 12.2865 2.85906 12.0542C2.67158 11.8452 2.74188 11.4271 2.74188 11.1484V0.0464518H0V12.3561C0 12.8903 0.0703039 13.5639 0.632741 14.0516C1.12487 14.4697 1.73418 14.4697 2.34349 14.4697H14.928V14.4465ZM26.3408 14.4465V5.08645C26.3408 3.46065 25.0753 3.41419 24.7472 3.41419C24.2551 3.41419 23.6927 3.53032 23.2474 4.15742L18.3495 11.311C18.2558 11.4271 18.1855 11.5897 18.0683 11.5897C17.9043 11.5897 17.9042 11.4968 17.9042 11.311L17.998 3.55355H15.5608V13.0529C15.5608 13.6335 15.7248 14.5858 17.1543 14.5858C17.9746 14.5858 18.3495 14.3071 18.7245 13.7265L23.5755 6.71226C23.7395 6.45677 23.8333 6.43355 23.8567 6.43355C24.0208 6.43355 23.9739 6.54968 23.9739 6.71226L23.8801 14.4697H26.3408V14.4465ZM34.3087 0.0464518V3.55355H32.0589C30.9106 3.55355 29.3873 3.78581 28.4734 5.27226C27.7703 6.43355 27.7 8.0129 27.7 9.15097C27.7 10.5213 27.8172 11.9381 28.614 13.0065C29.6451 14.4232 31.1215 14.4929 32.1527 14.4929H34.3087V18H36.7459V14.4929H38.9019C39.9565 14.4929 41.386 14.4232 42.4406 13.0065C43.2608 11.8684 43.3545 10.6142 43.3545 9.15097C43.3545 7.94323 43.3545 6.50323 42.5812 5.27226C41.6438 3.78581 40.144 3.55355 38.9956 3.55355H36.7459V0.0464518H34.3087ZM34.3087 12.5884H33.1135C31.7777 12.5884 31.0747 12.3329 30.6528 11.6129C30.231 10.9394 30.2076 10.0568 30.2076 9.12774C30.2076 7.54839 30.3716 6.73548 30.7231 6.24774C31.3324 5.43484 32.387 5.38839 33.0432 5.38839H34.2852V12.5884H34.3087ZM36.7459 12.5884V5.38839H37.9879C38.6676 5.38839 39.7221 5.45807 40.308 6.24774C40.7298 6.82839 40.8236 7.78065 40.8236 9.12774C40.8236 10.0568 40.8001 10.9394 40.3783 11.6129C39.9565 12.3329 39.2534 12.5884 37.9176 12.5884H36.7459ZM47.151 14.4465H50.221C51.3458 14.4465 53.0566 14.3535 54.0877 12.8903C54.8845 11.7755 54.9548 10.2194 54.9548 8.77936C54.9548 7.59484 54.9079 5.89936 53.7831 4.73806C52.7285 3.64645 51.2521 3.55355 50.549 3.55355H46.7292C46.3073 3.55355 45.7683 3.6 45.3465 3.90194C45.0653 4.11097 44.7138 4.52903 44.7138 5.24903V17.9768H47.151V14.4465ZM47.151 12.5884V5.89936C47.151 5.78323 47.1979 5.64387 47.315 5.52774C47.4088 5.45807 47.5494 5.38839 47.6431 5.38839H50.0335C51.1115 5.38839 51.838 5.92258 52.1426 6.61935C52.2598 6.89806 52.4238 7.47871 52.4238 8.96516C52.4238 10.591 52.1895 11.2413 51.9551 11.5897C51.6739 12.031 51.088 12.5884 49.8694 12.5884H47.151ZM61.915 3.41419C60.6026 3.41419 58.6809 3.46064 57.4623 4.57548C56.1968 5.76 56.0562 7.80387 56.0562 9.03484C56.0562 10.1497 56.15 12.2168 57.4623 13.4013C58.6575 14.4929 60.6026 14.5858 61.915 14.5858C63.1804 14.5858 65.1724 14.4929 66.3676 13.4013C67.1878 12.6348 67.7737 11.2645 67.7737 8.96516C67.7737 7.80387 67.6331 5.76 66.3676 4.57548C65.149 3.46064 63.2039 3.41419 61.915 3.41419ZM58.5638 9.01161C58.5638 8.31484 58.5638 6.92129 59.2434 6.13161C59.923 5.34194 61.1182 5.27226 61.8915 5.27226C62.7586 5.27226 63.8132 5.36516 64.5397 6.13161C65.313 6.96774 65.2427 8.22194 65.2427 9.01161C65.2427 9.96387 65.2427 11.009 64.5162 11.8219C63.7897 12.6348 62.8055 12.7277 61.8915 12.7277C61.0244 12.7277 59.9699 12.6348 59.2434 11.8219C58.5872 11.0323 58.5638 9.91742 58.5638 9.01161ZM69.1329 12.8439C69.1329 13.1923 69.1798 13.7265 69.5547 14.0516C69.9297 14.4 70.5624 14.4465 71.0077 14.4465H76.2337C76.8664 14.4465 77.7804 14.4232 78.46 13.7729C79.163 13.0761 79.2099 11.9381 79.2099 11.3574C79.2099 10.7768 79.163 10.08 78.7412 9.54581C78.4834 9.24387 78.0147 8.91871 77.3586 8.82581V8.77936C77.8976 8.70968 78.3662 8.47742 78.6709 8.15226C79.1162 7.66452 79.163 6.92129 79.163 6.34065C79.163 5.82968 79.1162 4.9471 78.5772 4.32C77.8976 3.55355 76.843 3.53032 76.0931 3.53032H71.1014C70.6327 3.53032 70.0937 3.57677 69.625 3.97161C69.1563 4.36645 69.1329 4.85419 69.1329 5.24903V12.8439ZM71.5701 7.87355V5.92258C71.5701 5.80645 71.5701 5.64387 71.7107 5.50452C71.8513 5.38839 72.0154 5.38839 72.1794 5.38839H75.39C75.7181 5.38839 76.0696 5.41161 76.3509 5.6671C76.6555 5.94581 76.6789 6.31742 76.6789 6.66581C76.6789 6.94452 76.6321 7.2929 76.3743 7.57161C76.0931 7.85032 75.6712 7.89677 75.3666 7.89677H71.5701V7.87355ZM71.5701 9.73161H75.3666C75.6478 9.73161 76.0931 9.75484 76.3977 10.08C76.6789 10.3587 76.6789 10.7768 76.6789 11.1019C76.6789 11.4503 76.6555 11.9381 76.3509 12.2632C76.0696 12.5419 75.5775 12.5884 75.226 12.5884H72.2029C72.0154 12.5884 71.8279 12.5884 71.6873 12.4258C71.5936 12.3097 71.5701 12.1006 71.5701 11.9381V9.73161ZM86.1466 3.41419C84.8343 3.41419 82.9126 3.46064 81.694 4.57548C80.4285 5.76 80.2879 7.80387 80.2879 9.03484C80.2879 10.1497 80.3817 12.2168 81.694 13.4013C82.8892 14.4929 84.8343 14.5858 86.1466 14.5858C87.4121 14.5858 89.4041 14.4929 90.5993 13.4013C91.4195 12.6348 92.0054 11.2645 92.0054 8.96516C92.0054 7.80387 91.8647 5.76 90.5993 4.57548C89.3806 3.46064 87.459 3.41419 86.1466 3.41419ZM82.7954 9.01161C82.7954 8.31484 82.7954 6.92129 83.4751 6.13161C84.1547 5.34194 85.3498 5.27226 86.1232 5.27226C86.9903 5.27226 88.0449 5.36516 88.7713 6.13161C89.5447 6.96774 89.4744 8.22194 89.4744 9.01161C89.4744 9.96387 89.4744 11.009 88.7479 11.8219C88.0214 12.6348 87.0371 12.7277 86.1232 12.7277C85.2561 12.7277 84.2015 12.6348 83.4751 11.8219C82.8189 11.0323 82.7954 9.91742 82.7954 9.01161ZM104.168 14.4465V5.08645C104.168 3.46065 102.903 3.41419 102.574 3.41419C102.082 3.41419 101.52 3.53032 101.075 4.15742L96.1768 11.311C96.083 11.4271 96.0127 11.5897 95.8955 11.5897C95.7315 11.5897 95.7315 11.4968 95.7315 11.311L95.8252 3.55355H93.388V13.0529C93.388 13.6335 93.5521 14.5858 94.9816 14.5858C95.8018 14.5858 96.1768 14.3071 96.5517 13.7265L101.403 6.71226C101.567 6.45677 101.661 6.43355 101.684 6.43355C101.848 6.43355 101.801 6.54968 101.801 6.71226L101.707 14.4697H104.168V14.4465ZM98.8015 1.55613C98.3328 1.55613 97.7938 1.46323 97.3719 1.06839C97.1376 0.836129 96.9267 0.44129 96.8564 0.185806H94.9581C95.1925 0.975484 95.6378 1.83484 96.1533 2.27613C96.9735 2.99613 98.075 3.08903 98.8015 3.08903C99.5514 3.08903 100.653 2.99613 101.45 2.27613C101.942 1.83484 102.41 0.975484 102.645 0.185806H100.747C100.653 0.464516 100.465 0.836129 100.231 1.06839C99.8092 1.48645 99.2702 1.55613 98.8015 1.55613ZM124.135 0.0464518H121.393V5.94581H113.823V0.0464518H111.081V14.4697H113.823V8.10581H121.393V14.4465H124.135V0.0464518ZM126.619 14.4465H129.361V3.22839C129.361 2.94968 129.361 2.67097 129.642 2.41548C129.876 2.20645 130.087 2.18323 130.368 2.18323H134.821C135.266 2.18323 135.922 2.18323 136.368 2.62452C136.649 2.90323 136.883 3.48387 136.883 4.62194C136.883 5.10968 136.836 6.15484 136.555 6.59613C136.18 7.17677 135.547 7.22323 135.055 7.22323H132.313C131.517 7.22323 131.095 7.64129 131.095 8.22194V8.5471C131.095 8.96516 131.493 9.47613 131.774 9.75484L136.555 14.4232H140L134.469 9.33677V9.24387H136.344C138.008 9.24387 138.711 8.45419 139.086 7.75742C139.672 6.68903 139.719 5.55097 139.719 4.50581C139.719 3.46065 139.672 2.32258 138.992 1.32387C138.149 0.0696776 136.883 0 135.875 0H128.986C128.447 0 127.767 0.0929032 127.251 0.580645C126.666 1.13806 126.642 1.85806 126.642 2.46194V14.4465H126.619Z" fill="white"/>
</svg>
