<svg width="32" height="32" viewBox="0 0 32 32" fill="none" xmlns="http://www.w3.org/2000/svg">
<g clip-path="url(#clip0_408_10690)">
<path fill-rule="evenodd" clip-rule="evenodd" d="M16 32C24.8366 32 32 24.8366 32 16C32 7.16344 24.8366 0 16 0C7.16344 0 0 7.16344 0 16C0 24.8366 7.16344 32 16 32Z" fill="#C5C8D7"/>
<g clip-path="url(#clip1_408_10690)">
<path d="M24 20.6364C24 20.8409 23.9621 21.108 23.8864 21.4375C23.8106 21.767 23.7311 22.0265 23.6477 22.2159C23.4886 22.5947 23.0265 22.9962 22.2614 23.4205C21.5492 23.8068 20.8447 24 20.1477 24C19.9432 24 19.7424 23.9867 19.5455 23.9602C19.3485 23.9337 19.1307 23.8864 18.892 23.8182C18.6534 23.75 18.4754 23.6951 18.358 23.6534C18.2405 23.6117 18.0303 23.5341 17.7273 23.4205C17.4242 23.3068 17.2386 23.2386 17.1705 23.2159C16.428 22.9508 15.7652 22.6364 15.1818 22.2727C14.2197 21.6742 13.2197 20.8561 12.1818 19.8182C11.1439 18.7803 10.3258 17.7803 9.72727 16.8182C9.36364 16.2348 9.04924 15.572 8.78409 14.8295C8.76136 14.7614 8.69318 14.5758 8.57955 14.2727C8.46591 13.9697 8.38826 13.7595 8.34659 13.642C8.30492 13.5246 8.25 13.3466 8.18182 13.108C8.11364 12.8693 8.06629 12.6515 8.03977 12.4545C8.01326 12.2576 8 12.0568 8 11.8523C8 11.1553 8.19318 10.4508 8.57955 9.73864C9.00379 8.97348 9.4053 8.51136 9.78409 8.35227C9.97348 8.26894 10.233 8.18939 10.5625 8.11364C10.892 8.03788 11.1591 8 11.3636 8C11.4697 8 11.5492 8.01136 11.6023 8.03409C11.7386 8.07955 11.9394 8.36742 12.2045 8.89773C12.2879 9.04167 12.4015 9.24621 12.5455 9.51136C12.6894 9.77652 12.822 10.017 12.9432 10.233C13.0644 10.4489 13.1818 10.6515 13.2955 10.8409C13.3182 10.8712 13.3845 10.9659 13.4943 11.125C13.6042 11.2841 13.6856 11.4186 13.7386 11.5284C13.7917 11.6383 13.8182 11.7462 13.8182 11.8523C13.8182 12.0038 13.7102 12.1932 13.4943 12.4205C13.2784 12.6477 13.0436 12.8561 12.7898 13.0455C12.536 13.2348 12.3011 13.4356 12.0852 13.6477C11.8693 13.8598 11.7614 14.0341 11.7614 14.1705C11.7614 14.2386 11.7803 14.3239 11.8182 14.4261C11.8561 14.5284 11.8883 14.6061 11.9148 14.6591C11.9413 14.7121 11.9943 14.803 12.0739 14.9318C12.1534 15.0606 12.197 15.1326 12.2045 15.1477C12.7803 16.1856 13.4394 17.0758 14.1818 17.8182C14.9242 18.5606 15.8144 19.2197 16.8523 19.7955C16.8674 19.803 16.9394 19.8466 17.0682 19.9261C17.197 20.0057 17.2879 20.0587 17.3409 20.0852C17.3939 20.1117 17.4716 20.1439 17.5739 20.1818C17.6761 20.2197 17.7614 20.2386 17.8295 20.2386C17.9659 20.2386 18.1402 20.1307 18.3523 19.9148C18.5644 19.6989 18.7652 19.464 18.9545 19.2102C19.1439 18.9564 19.3523 18.7216 19.5795 18.5057C19.8068 18.2898 19.9962 18.1818 20.1477 18.1818C20.2538 18.1818 20.3617 18.2083 20.4716 18.2614C20.5814 18.3144 20.7159 18.3958 20.875 18.5057C21.0341 18.6155 21.1288 18.6818 21.1591 18.7045C21.3485 18.8182 21.5511 18.9356 21.767 19.0568C21.983 19.178 22.2235 19.3106 22.4886 19.4545C22.7538 19.5985 22.9583 19.7121 23.1023 19.7955C23.6326 20.0606 23.9205 20.2614 23.9659 20.3977C23.9886 20.4508 24 20.5303 24 20.6364Z" fill="white"/>
</g>
</g>
<defs>
<clipPath id="clip0_408_10690">
<rect width="32" height="32" fill="white"/>
</clipPath>
<clipPath id="clip1_408_10690">
<rect width="16" height="16" fill="white" transform="translate(8 8)"/>
</clipPath>
</defs>
</svg>
