<svg width="32" height="32" viewBox="0 0 32 32" fill="none" xmlns="http://www.w3.org/2000/svg">
<rect width="32" height="32" rx="16" fill="#C5C8D7"/>
<path d="M22.3759 9.58397C21.5457 8.74767 20.5575 8.08464 19.4689 7.6334C18.3803 7.18216 17.2129 6.95168 16.0345 6.95537C11.095 6.95537 7.07462 10.9757 7.07462 15.9186C7.07462 17.498 7.48841 19.0424 8.2719 20.3991L7 25.0447L11.7518 23.7976C13.0655 24.5132 14.5374 24.8887 16.0333 24.8898H16.0367C20.9762 24.8898 25 20.8694 25 15.9265C25.003 14.7485 24.7725 13.5816 24.3219 12.4931C23.8713 11.4047 23.2095 10.4163 22.3748 9.5851L22.3759 9.58397ZM16.0367 23.377C14.7017 23.3773 13.3912 23.0184 12.2425 22.338L11.97 22.1752L9.15036 22.9135L9.90333 20.1651L9.72696 19.8824C8.97824 18.6962 8.58258 17.3214 8.5862 15.9186C8.5886 13.9425 9.37492 12.048 10.7726 10.6509C12.1703 9.2539 14.0651 8.46845 16.0413 8.46695C18.0299 8.46695 19.9033 9.24479 21.3086 10.6501C22.0021 11.3411 22.5518 12.1627 22.926 13.0674C23.3001 13.972 23.4913 14.9419 23.4884 15.9209C23.485 20.0328 20.143 23.3759 16.0367 23.3759V23.377ZM20.1215 17.7954C19.8988 17.6823 18.7965 17.1419 18.5918 17.0673C18.3872 16.9927 18.238 16.9542 18.0865 17.1803C17.9384 17.4031 17.5076 17.9084 17.3765 18.0599C17.2453 18.208 17.1153 18.2295 16.8926 18.1165C16.6699 18.0034 15.9452 17.7671 15.0904 17.004C14.4257 16.4104 13.9746 15.6755 13.8434 15.4528C13.7123 15.2301 13.8287 15.1069 13.9429 14.9972C14.0458 14.8977 14.1656 14.736 14.2787 14.6049C14.3917 14.4737 14.4268 14.3821 14.5014 14.2307C14.576 14.0825 14.5398 13.9514 14.4833 13.8383C14.4268 13.7253 13.9779 12.623 13.7948 12.1741C13.615 11.7355 13.4274 11.7965 13.2894 11.7886C13.1583 11.7818 13.0102 11.7818 12.8621 11.7818C12.714 11.7818 12.4697 11.8383 12.2651 12.0611C12.0605 12.2838 11.4805 12.8276 11.4805 13.9299C11.4805 15.0322 12.2821 16.0961 12.3951 16.2476C12.5082 16.3957 13.9745 18.6603 16.221 19.6292C16.7546 19.8587 17.1718 19.9966 17.4963 20.1029C18.0333 20.2725 18.5206 20.2476 18.9061 20.1911C19.3369 20.1278 20.2312 19.6507 20.4189 19.1272C20.6065 18.6037 20.6065 18.156 20.55 18.0633C20.4969 17.9638 20.3488 17.9084 20.1226 17.7942L20.1215 17.7954Z" fill="white"/>
</svg>
